<svg xmlns="http://www.w3.org/2000/svg" viewBox="0 0 263.65 142.73"><title>Asset 2</title><g id="Layer_2" data-name="Layer 2"><g id="Layer_1-2" data-name="Layer 1"><path d="M2.22,58.73V45.17q6.28,3.66,10.55,3.66a5.48,5.48,0,0,0,3.93-1.37,4.8,4.8,0,0,0,1.44-3.64A5.34,5.34,0,0,0,17,40.55a22,22,0,0,0-4-3.71Q6.15,31.61,3.07,27.1A17.45,17.45,0,0,1,0,17.05,16.64,16.64,0,0,1,4.75,4.75,16.64,16.64,0,0,1,17.05,0,27.42,27.42,0,0,1,28.12,2.4v13q-5.88-3.23-9.55-3.22a5.79,5.79,0,0,0-3.86,1.2A4.08,4.08,0,0,0,13.3,16.7q0,3.66,6.58,8.24a39.84,39.84,0,0,1,8,7.61,17.33,17.33,0,0,1,4,11.35A16.43,16.43,0,0,1,26.6,56.4a18.79,18.79,0,0,1-13.39,4.94A25.26,25.26,0,0,1,2.22,58.73Z"/><path d="M54.49,1.61h16.7Q74.76,20.45,76.81,34l1.44-9q.87-5.27,1.88-10.29L82.7,1.61h17l6.62,58.21H93.29l-3.53-40-8.15,40H72.67L64.13,19.71,60.72,59.82H48.21Z"/><path d="M166.44,59.82H152.71l-2.22-9.72h-14l-2.32,9.72H120.75L136.19,1.61H151ZM148,39.63q-3-13-4.45-24.72h-.17Q141.76,27,138.93,39.63Z"/><path d="M182,1.61h15.39q9.33,0,14.74,4.8t5.41,13a17.58,17.58,0,0,1-2.05,8.17,13.52,13.52,0,0,1-6,5.95l10.55,26.25h-14L195.47,33.31h-.22V59.82H182Zm13.21,11.25V26.68q8.77-.16,8.77-6.14,0-4.07-2-5.8T195.25,12.86Z"/><path d="M232.13,1.61h31.52v13.3h-9.11V59.82H241.16V14.91h-9Z"/><path d="M23.13,54.66H49.86V67.13H36.34V77.76h11.9V89.84H36.34v23H23.13Z"/><path d="M67.9,54.66H81.11v58.2H67.9Z"/><path d="M102.94,54.66h15.39q9.33,0,14.74,4.79t5.41,13a17.58,17.58,0,0,1-2,8.17,13.57,13.57,0,0,1-6,6L141,112.86h-14L116.37,86.35h-.22v26.51H102.94Zm13.21,11.25V79.73q8.76-.18,8.77-6.15c0-2.7-.68-4.64-2-5.8S119.29,66,116.15,65.91Z"/><path d="M157.39,54.66h26.72V67H170.6V77.76h11.73V89.84H170.6v10.6h13.6v12.42H157.39Z"/><path d="M203.55,54.66h12.34q12.83,0,19.49,7.3t6.67,21.34q0,10.64-3.29,17.18a20.36,20.36,0,0,1-9.2,9.46,29,29,0,0,1-13.06,2.92H203.55ZM216.76,67v33.4q6-.52,8.5-4.25t2.49-12.28a36.1,36.1,0,0,0-.87-8.56,12.32,12.32,0,0,0-2.6-5.41,7.26,7.26,0,0,0-3.35-2.33A21,21,0,0,0,216.76,67Z"/><path d="M23.73,128.38a17.89,17.89,0,0,1,3.38-.3,5.94,5.94,0,0,1,3.93,1,3,3,0,0,1,1.18,2.53,3.39,3.39,0,0,1-2.42,3.14v0a3.69,3.69,0,0,1,2.95,3.59,3.81,3.81,0,0,1-1.21,2.86c-1,.92-2.61,1.34-4.94,1.34a20.9,20.9,0,0,1-2.87-.17Zm1.85,5.86h1.68c1.95,0,3.1-1,3.1-2.4,0-1.68-1.28-2.34-3.15-2.34a8.18,8.18,0,0,0-1.63.13Zm0,6.85a9,9,0,0,0,1.55.09c1.91,0,3.67-.7,3.67-2.78s-1.67-2.76-3.69-2.76H25.58Z"/><path d="M42.34,142.49v-6.07l-4.52-8.23h2.1l2,3.95c.55,1.08,1,2,1.42,3h0c.41-.94.9-1.87,1.45-3l2.06-3.95H49l-4.8,8.21v6.09Z"/><path d="M63.62,142.49v-14.3h2l4.58,7.24a39.11,39.11,0,0,1,2.57,4.64l0,0c-.17-1.91-.21-3.65-.21-5.88v-6h1.74v14.3H72.5L68,135.24a47.29,47.29,0,0,1-2.67-4.78l-.07,0c.11,1.81.15,3.52.15,5.9v6.11Z"/><path d="M83.67,128.19v14.3H81.83v-14.3Z"/><path d="M91.14,128.19H93v6.9h.06c.38-.55.77-1.06,1.13-1.53l4.37-5.37h2.29l-5.18,6.07,5.59,8.23H99.06l-4.71-7L93,137v5.45H91.14Z"/><path d="M108.73,128.19v6h6.92v-6h1.87v14.3h-1.87v-6.7h-6.92v6.7h-1.84v-14.3Z"/><path d="M126.81,128.19v14.3H125v-14.3Z"/><path d="M134.28,128.19h1.84v12.75h6.12v1.55h-8Z"/><path d="M157.28,128.19h1.84v6.9h.07c.38-.55.76-1.06,1.12-1.53l4.37-5.37H167l-5.18,6.07,5.58,8.23h-2.19l-4.71-7L159.12,137v5.45h-1.84Z"/><path d="M174.87,128.19v8.47c0,3.2,1.42,4.56,3.33,4.56,2.12,0,3.48-1.4,3.48-4.56v-8.47h1.87v8.34c0,4.39-2.32,6.2-5.41,6.2-2.93,0-5.14-1.68-5.14-6.11v-8.43Z"/><path d="M203.05,136.21c-.11-2-.24-4.39-.22-6.17h-.06c-.49,1.67-1.08,3.46-1.8,5.43l-2.53,6.94H197l-2.31-6.81c-.68-2-1.26-3.87-1.66-5.56h0c0,1.78-.15,4.18-.28,6.32l-.38,6.13h-1.76l1-14.3H194l2.44,6.92c.6,1.76,1.09,3.33,1.45,4.82h.06c.36-1.45.87-3,1.51-4.82l2.54-6.92h2.36l.89,14.3h-1.8Z"/><path d="M214.4,138l-1.49,4.5H211l4.86-14.3h2.23l4.88,14.3h-2l-1.53-4.5Zm4.69-1.44-1.4-4.12c-.32-.93-.54-1.78-.75-2.61h0c-.21.85-.45,1.72-.72,2.59l-1.4,4.14Z"/><path d="M229.31,128.38a19.25,19.25,0,0,1,3.54-.3c2,0,3.25.36,4.14,1.17a3.54,3.54,0,0,1,1.13,2.72,3.76,3.76,0,0,1-2.7,3.65v.06c1.11.38,1.76,1.4,2.1,2.89a22.56,22.56,0,0,0,1.11,3.92h-1.91a18.25,18.25,0,0,1-1-3.41c-.42-2-1.19-2.72-2.86-2.78h-1.74v6.19h-1.85Zm1.85,6.52h1.89c2,0,3.22-1.09,3.22-2.72,0-1.85-1.34-2.65-3.29-2.68a7.77,7.77,0,0,0-1.82.17Z"/></g></g></svg>